PathFileType	4	(X/Y/Z)	OpenSim_Sub11_CSPreOp_Magnet.trc
DataRate	CameraRate	NumFrames	NumMarkers	Units	OrigDataRate	OrigDataStartFrame	OrigNumFrames
100	100	30	8	m	100	3239	3701
Frame#	Time	torso_imu_offset_imu	pelvis_imu_offset_imu	tibia_r_imu_offset_imu	femur_r_imu_offset_imu	tibia_l_imu_offset_imu	femur_l_imu_offset_imu	toes_r_imu_offset_imu	toes_l_imu_offset_imu
				X1	Y1	Z1	X2	Y2	Z2	X3	Y3	Z3	X4	Y4	Z4	X5	Y5	Z5	X6	Y6	Z6	X7	Y7	Z7	X8		Y8	Z8	

3239	32.38000000	-0.93066400	-0.24047900	0.05835000	-0.49438500	0.20556600	-0.68969700	-0.29516600	-0.72143600	-0.33227500	-0.70605500	-0.43237300	-0.02172900	-0.70581100	0.41284200	0.30542000	-0.65429700	0.29858400	0.62280300	-0.69043000	-0.57934600	-0.23413100	-0.76074200	-0.13427700	-0.26293900
3240	32.39000000	-0.93066400	-0.23828100	0.06494100	-0.48608400	0.20752000	-0.70092800	-0.30590800	-0.71313500	-0.33715800	-0.70361300	-0.43164100	-0.03051800	-0.70141600	0.40795900	0.30200200	-0.64697300	0.29663100	0.61743200	-0.68090800	-0.57641600	-0.25537100	-0.75390600	-0.13769500	-0.27124000
3241	32.40000000	-0.93286100	-0.24072300	0.06738300	-0.48193400	0.21191400	-0.69751000	-0.32299800	-0.70483400	-0.34423800	-0.70629900	-0.42211900	-0.03930700	-0.69970700	0.41333000	0.29956100	-0.64453100	0.29809600	0.61792000	-0.67724600	-0.56616200	-0.27197300	-0.75073200	-0.13525400	-0.27587900
3242	32.41000000	-0.92627000	-0.24267600	0.06958000	-0.48266600	0.20874000	-0.69726600	-0.33374000	-0.69628900	-0.34887700	-0.70849600	-0.42602500	-0.04199200	-0.69970700	0.41040000	0.30029300	-0.64086900	0.29394500	0.62182600	-0.67578100	-0.56689500	-0.28784200	-0.75317400	-0.14209000	-0.27490200
3243	32.42000000	-0.92627000	-0.24267600	0.06958000	-0.47778300	0.21313500	-0.68701200	-0.35278300	-0.69238300	-0.33789100	-0.70532200	-0.41870100	-0.03637700	-0.69433600	0.40991200	0.31347700	-0.63696300	0.29638700	0.63525400	-0.66577100	-0.55810500	-0.29345700	-0.74780300	-0.13989300	-0.26879900
3244	32.43000000	-0.92846700	-0.24047900	0.06958000	-0.48193400	0.21826200	-0.69482400	-0.36792000	-0.67553700	-0.34082000	-0.71435500	-0.41088900	-0.05200200	-0.70092800	0.41650400	0.30517600	-0.64404300	0.30053700	0.63085900	-0.66870100	-0.54736300	-0.31958000	-0.75390600	-0.13623000	-0.27978500
3245	32.44000000	-0.93261700	-0.24487300	0.07397500	-0.47119100	0.22509800	-0.70214800	-0.38891600	-0.66943400	-0.34545900	-0.70874000	-0.40332000	-0.05810500	-0.68920900	0.42089800	0.30322300	-0.63208000	0.30688500	0.62548800	-0.65307600	-0.53466800	-0.34277300	-0.74804700	-0.13012700	-0.28491200
3246	32.45000000	-0.93017600	-0.25146500	0.07177700	-0.47460900	0.22290000	-0.69458000	-0.40820300	-0.65478500	-0.34814500	-0.71362300	-0.40576200	-0.05517600	-0.69213900	0.41821300	0.31079100	-0.63549800	0.30102500	0.63598600	-0.65283200	-0.53466800	-0.35205100	-0.74780300	-0.13671900	-0.28076200
3247	32.46000000	-0.92822300	-0.24926800	0.07861300	-0.47607400	0.22338900	-0.70947300	-0.43164100	-0.64233400	-0.34423800	-0.71801800	-0.40625000	-0.07128900	-0.69604500	0.41821300	0.29760700	-0.63842800	0.30078100	0.62524400	-0.64697300	-0.52978500	-0.38330100	-0.75512700	-0.13916000	-0.29248000
3248	32.47000000	-0.93042000	-0.24487300	0.08081100	-0.46972700	0.22729500	-0.69970700	-0.45532200	-0.62768600	-0.34252900	-0.71533200	-0.40112300	-0.06933600	-0.69116200	0.42358400	0.30151400	-0.63354500	0.30297900	0.63110400	-0.63525400	-0.51757800	-0.39746100	-0.75024400	-0.13476600	-0.28979500
3249	32.48000000	-0.92407200	-0.24267600	0.07617200	-0.45922900	0.23217800	-0.68945300	-0.47436500	-0.61523400	-0.35424800	-0.70483400	-0.39965800	-0.05883800	-0.67944300	0.42968800	0.31567400	-0.62548800	0.30737300	0.64770500	-0.61718800	-0.50366200	-0.40258800	-0.74145500	-0.13012700	-0.28076200
3250	32.49000000	-0.92602500	-0.24487300	0.08081100	-0.46460000	0.23388700	-0.70214800	-0.48974600	-0.59643600	-0.35253900	-0.71142600	-0.39941400	-0.07202100	-0.68652300	0.42944300	0.30639600	-0.62915000	0.30664100	0.63598600	-0.62060500	-0.49365200	-0.42724600	-0.74707000	-0.13110400	-0.29394500
3251	32.50000000	-0.92797900	-0.25146500	0.07861300	-0.45874000	0.23388700	-0.70239300	-0.51538100	-0.57983400	-0.35107400	-0.70312500	-0.39990200	-0.07910200	-0.67675800	0.43481400	0.30151400	-0.62377900	0.30688500	0.63647500	-0.60668900	-0.48901400	-0.43969700	-0.74462900	-0.12988300	-0.29638700
3252	32.51000000	-0.92163100	-0.24487300	0.07861300	-0.46484400	0.24194300	-0.69506800	-0.53906200	-0.56103500	-0.34716800	-0.71289100	-0.40258800	-0.07617200	-0.68530300	0.43798800	0.30883800	-0.62890600	0.31079100	0.64331100	-0.60986300	-0.48193400	-0.44360400	-0.75170900	-0.12890600	-0.29150400
3253	32.52000000	-0.92627000	-0.24047900	0.07861300	-0.46899400	0.24096700	-0.69848600	-0.55200200	-0.54858400	-0.34326200	-0.71435500	-0.40527300	-0.08252000	-0.68823200	0.44384800	0.30835000	-0.63208000	0.31225600	0.64135700	-0.60742200	-0.47338900	-0.45996100	-0.75585900	-0.12695300	-0.29834000
3254	32.53000000	-0.92602500	-0.24707000	0.08300800	-0.46484400	0.23999000	-0.70019500	-0.57568400	-0.52758800	-0.35278300	-0.70849600	-0.41210900	-0.08837900	-0.68432600	0.44287100	0.30444300	-0.62890600	0.31030300	0.64331100	-0.59619100	-0.46411100	-0.47705100	-0.75756800	-0.12524400	-0.30346700
3255	32.54000000	-0.92846700	-0.24267600	0.08300800	-0.45678700	0.23999000	-0.69897500	-0.58911100	-0.50683600	-0.35131800	-0.69970700	-0.41723600	-0.08935500	-0.67700200	0.44775400	0.30688500	-0.62280300	0.31274400	0.64135700	-0.57959000	-0.45336900	-0.49194300	-0.75317400	-0.12207000	-0.30371100
3256	32.55000000	-0.93066400	-0.24267600	0.08520500	-0.46044900	0.24243200	-0.70092800	-0.60400400	-0.49438500	-0.35839800	-0.69970700	-0.42358400	-0.08642600	-0.67822300	0.44824200	0.30371100	-0.62353500	0.31372100	0.64160200	-0.56543000	-0.44433600	-0.50781200	-0.75439500	-0.12304700	-0.30688500
3257	32.56000000	-0.92797900	-0.25585900	0.08544900	-0.46460000	0.23901400	-0.69873000	-0.61962900	-0.46923800	-0.35937500	-0.69726600	-0.43359400	-0.08471700	-0.67993200	0.45019500	0.30664100	-0.62670900	0.31323200	0.64990200	-0.55737300	-0.44091800	-0.51757800	-0.75903300	-0.12255900	-0.30590800
3258	32.57000000	-0.92797900	-0.25366200	0.09448200	-0.45947300	0.24365200	-0.69726600	-0.63037100	-0.45874000	-0.35742200	-0.69458000	-0.43505900	-0.08422900	-0.67627000	0.45727500	0.30712900	-0.62255900	0.31884800	0.64648400	-0.54711900	-0.42602500	-0.53002900	-0.75927700	-0.11743200	-0.30883800
3259	32.58000000	-0.92358400	-0.25341800	0.07861300	-0.46484400	0.24243200	-0.70166000	-0.64111300	-0.44848600	-0.35351600	-0.69360400	-0.44116200	-0.08349600	-0.67993200	0.46191400	0.30566400	-0.62622100	0.31713900	0.64843800	-0.53881800	-0.42309600	-0.53808600	-0.76586900	-0.11621100	-0.31298800
3260	32.59000000	-0.92138700	-0.25122100	0.08300800	-0.45898400	0.25195300	-0.70092800	-0.65210000	-0.43798800	-0.35376000	-0.68627900	-0.44067400	-0.08349600	-0.66894500	0.47485400	0.30249000	-0.61743200	0.32959000	0.64379900	-0.52490200	-0.40576200	-0.54980500	-0.76049800	-0.10302700	-0.31445300
3261	32.60000000	-0.92602500	-0.24926800	0.08520500	-0.46557600	0.23999000	-0.70117200	-0.65234400	-0.42968800	-0.35180700	-0.68676800	-0.45776400	-0.07885700	-0.67285200	0.46313500	0.30175800	-0.62036100	0.31640600	0.64697300	-0.52441400	-0.41650400	-0.55346700	-0.76806600	-0.11474600	-0.31762700
3262	32.61000000	-0.92602500	-0.24926800	0.08081100	-0.45800800	0.23657200	-0.70166000	-0.66308600	-0.41918900	-0.34545900	-0.68090800	-0.46069300	-0.07397500	-0.66406200	0.47021500	0.30590800	-0.61596700	0.31958000	0.65405300	-0.51538100	-0.40991200	-0.55053700	-0.76318400	-0.10986300	-0.31591800
3263	32.62000000	-0.92602500	-0.24926800	0.08984400	-0.45166000	0.23461900	-0.69189500	-0.66748000	-0.41723600	-0.34326200	-0.67236300	-0.47021500	-0.06250000	-0.65625000	0.47216800	0.30883800	-0.60961900	0.31738300	0.65747100	-0.50781200	-0.41479500	-0.54565400	-0.75976600	-0.11181600	-0.31152300
3264	32.63000000	-0.92578100	-0.25146500	0.08544900	-0.46679700	0.23828100	-0.69848600	-0.67163100	-0.41723600	-0.33447300	-0.68212900	-0.46679700	-0.06738300	-0.66674800	0.47900400	0.30639600	-0.61938500	0.32251000	0.65502900	-0.52465800	-0.40673800	-0.54882800	-0.77465800	-0.10620100	-0.31909200
3265	32.64000000	-0.92358400	-0.25341800	0.07641600	-0.46313500	0.23022500	-0.69555700	-0.67163100	-0.41723600	-0.32983400	-0.67749000	-0.47680700	-0.06518600	-0.65869100	0.47876000	0.30419900	-0.61621100	0.31689500	0.65478500	-0.52880900	-0.40258800	-0.54736300	-0.77417000	-0.10424800	-0.31689500
3266	32.65000000	-0.92358400	-0.25341800	0.08764600	-0.46630900	0.23071300	-0.69531200	-0.67358400	-0.41943400	-0.32104500	-0.67578100	-0.47778300	-0.06518600	-0.65869100	0.48315400	0.30175800	-0.61352500	0.31884800	0.65527300	-0.53662100	-0.39599600	-0.54467800	-0.77539100	-0.10302700	-0.32324200
3267	32.66000000	-0.92578100	-0.25146500	0.07641600	-0.46923800	0.23046900	-0.69335900	-0.66918900	-0.42773400	-0.32055700	-0.67382800	-0.48266600	-0.06176800	-0.65527300	0.48925800	0.30517600	-0.61352500	0.32275400	0.65698200	-0.54711900	-0.39160200	-0.53588900	-0.78125000	-0.10058600	-0.32177700
3268	32.67000000	-0.92797900	-0.25146500	0.08081100	-0.47265600	0.22949200	-0.69946300	-0.67749000	-0.43188500	-0.31152300	-0.67529300	-0.48681600	-0.06445300	-0.65698200	0.49243200	0.29443400	-0.61718800	0.32373000	0.65039100	-0.55932600	-0.39697300	-0.53491200	-0.78442400	-0.09643600	-0.33203100
